<mxfile host="Electron" modified="2023-06-02T19:10:41.091Z" agent="Mozilla/5.0 (Windows NT 10.0; Win64; x64) AppleWebKit/537.36 (KHTML, like Gecko) draw.io/21.2.8 Chrome/112.0.5615.165 Electron/24.2.0 Safari/537.36" etag="0R3s4L11OyitxYteUlN5" version="21.2.8" type="device">
  <diagram name="Pagina-1" id="-LCrpFPV8_VoU85a3iUr">
    <mxGraphModel dx="532" dy="614" grid="1" gridSize="10" guides="1" tooltips="1" connect="1" arrows="1" fold="1" page="1" pageScale="1" pageWidth="2500" pageHeight="3000" math="0" shadow="0">
      <root>
        <mxCell id="0" />
        <mxCell id="1" parent="0" />
        <mxCell id="Jj6_9JQDS-Vz_as1rNOG-1" value="alt" style="shape=umlFrame;whiteSpace=wrap;html=1;pointerEvents=0;" parent="1" vertex="1">
          <mxGeometry x="40" y="130" width="720" height="280" as="geometry" />
        </mxCell>
        <mxCell id="Jj6_9JQDS-Vz_as1rNOG-2" value="Client" style="html=1;whiteSpace=wrap;fontSize=16;" parent="1" vertex="1">
          <mxGeometry x="170" y="30" width="110" height="40" as="geometry" />
        </mxCell>
        <mxCell id="Jj6_9JQDS-Vz_as1rNOG-3" value="Server" style="html=1;whiteSpace=wrap;fontSize=16;" parent="1" vertex="1">
          <mxGeometry x="590" y="30" width="110" height="40" as="geometry" />
        </mxCell>
        <mxCell id="Jj6_9JQDS-Vz_as1rNOG-4" value="" style="shape=umlLifeline;perimeter=lifelinePerimeter;whiteSpace=wrap;html=1;container=1;dropTarget=0;collapsible=0;recursiveResize=0;outlineConnect=0;portConstraint=eastwest;newEdgeStyle={&quot;edgeStyle&quot;:&quot;elbowEdgeStyle&quot;,&quot;elbow&quot;:&quot;vertical&quot;,&quot;curved&quot;:0,&quot;rounded&quot;:0};participant=umlActor;size=0;" parent="1" vertex="1">
          <mxGeometry x="215" y="70" width="20" height="360" as="geometry" />
        </mxCell>
        <mxCell id="Jj6_9JQDS-Vz_as1rNOG-5" value="" style="shape=umlLifeline;perimeter=lifelinePerimeter;whiteSpace=wrap;html=1;container=1;dropTarget=0;collapsible=0;recursiveResize=0;outlineConnect=0;portConstraint=eastwest;newEdgeStyle={&quot;edgeStyle&quot;:&quot;elbowEdgeStyle&quot;,&quot;elbow&quot;:&quot;vertical&quot;,&quot;curved&quot;:0,&quot;rounded&quot;:0};participant=umlActor;size=0;" parent="1" vertex="1">
          <mxGeometry x="640" y="70" width="20" height="360" as="geometry" />
        </mxCell>
        <mxCell id="Jj6_9JQDS-Vz_as1rNOG-7" value="ChangeNumOfPlayersRequest(chosenNum : int)" style="html=1;verticalAlign=bottom;endArrow=block;edgeStyle=elbowEdgeStyle;elbow=vertical;curved=0;rounded=0;fontStyle=1;" parent="1" source="Jj6_9JQDS-Vz_as1rNOG-4" target="Jj6_9JQDS-Vz_as1rNOG-5" edge="1">
          <mxGeometry x="0.0141" width="80" relative="1" as="geometry">
            <mxPoint x="340" y="280" as="sourcePoint" />
            <mxPoint x="420" y="280" as="targetPoint" />
            <Array as="points">
              <mxPoint x="350" y="110" />
              <mxPoint x="400" y="140" />
            </Array>
            <mxPoint x="1" as="offset" />
          </mxGeometry>
        </mxCell>
        <mxCell id="Jj6_9JQDS-Vz_as1rNOG-8" value="[Admin Client]" style="text;html=1;align=center;verticalAlign=middle;resizable=0;points=[];autosize=1;strokeColor=none;fillColor=none;fontStyle=1;labelBackgroundColor=default;" parent="1" vertex="1">
          <mxGeometry x="105" y="130" width="110" height="30" as="geometry" />
        </mxCell>
        <mxCell id="Jj6_9JQDS-Vz_as1rNOG-10" value="&lt;div style=&quot;color: rgb(8, 8, 8);&quot;&gt;&lt;pre style=&quot;&quot;&gt;&lt;font face=&quot;Helvetica&quot;&gt;ChangeNumOfPlayersResponse(true)&lt;/font&gt;&lt;/pre&gt;&lt;/div&gt;" style="html=1;verticalAlign=bottom;endArrow=open;dashed=1;endSize=8;edgeStyle=elbowEdgeStyle;elbow=vertical;curved=0;rounded=0;labelBackgroundColor=none;" parent="1" source="Jj6_9JQDS-Vz_as1rNOG-5" target="Jj6_9JQDS-Vz_as1rNOG-4" edge="1">
          <mxGeometry x="-0.0165" y="10" relative="1" as="geometry">
            <mxPoint x="645" y="190" as="sourcePoint" />
            <mxPoint x="230" y="190" as="targetPoint" />
            <Array as="points">
              <mxPoint x="500" y="220" />
              <mxPoint x="550" y="240" />
              <mxPoint x="570" y="210" />
              <mxPoint x="335" y="190" />
            </Array>
            <mxPoint as="offset" />
          </mxGeometry>
        </mxCell>
        <mxCell id="Jj6_9JQDS-Vz_as1rNOG-16" value="alt" style="shape=umlFrame;whiteSpace=wrap;html=1;pointerEvents=0;" parent="1" vertex="1">
          <mxGeometry x="80" y="170" width="655" height="140" as="geometry" />
        </mxCell>
        <mxCell id="Jj6_9JQDS-Vz_as1rNOG-33" value="" style="line;strokeWidth=2;fillColor=none;align=left;verticalAlign=middle;spacingTop=-1;spacingLeft=3;spacingRight=3;rotatable=0;labelPosition=right;points=[];portConstraint=eastwest;strokeColor=inherit;dashed=1;" parent="1" vertex="1">
          <mxGeometry x="40" y="340" width="720" height="8" as="geometry" />
        </mxCell>
        <mxCell id="Jj6_9JQDS-Vz_as1rNOG-34" value="[else]" style="text;html=1;align=center;verticalAlign=middle;resizable=0;points=[];autosize=1;strokeColor=none;fillColor=none;fontStyle=1;labelBackgroundColor=default;" parent="1" vertex="1">
          <mxGeometry x="110" y="360" width="50" height="30" as="geometry" />
        </mxCell>
        <mxCell id="Jj6_9JQDS-Vz_as1rNOG-35" value="[Valid chosenNum]" style="text;html=1;align=center;verticalAlign=middle;resizable=0;points=[];autosize=1;strokeColor=none;fillColor=none;fontStyle=1;labelBackgroundColor=default;" parent="1" vertex="1">
          <mxGeometry x="140" y="180" width="130" height="30" as="geometry" />
        </mxCell>
        <mxCell id="Jj6_9JQDS-Vz_as1rNOG-36" value="" style="line;strokeWidth=1;fillColor=none;align=left;verticalAlign=middle;spacingTop=-1;spacingLeft=3;spacingRight=3;rotatable=0;labelPosition=right;points=[];portConstraint=eastwest;strokeColor=inherit;dashed=1;" parent="1" vertex="1">
          <mxGeometry x="80" y="250" width="650" height="8" as="geometry" />
        </mxCell>
        <mxCell id="Jj6_9JQDS-Vz_as1rNOG-37" value="[else]" style="text;html=1;align=center;verticalAlign=middle;resizable=0;points=[];autosize=1;strokeColor=none;fillColor=none;fontStyle=1;labelBackgroundColor=default;" parent="1" vertex="1">
          <mxGeometry x="135" y="258" width="50" height="30" as="geometry" />
        </mxCell>
        <mxCell id="Jj6_9JQDS-Vz_as1rNOG-38" value="&lt;div style=&quot;color: rgb(8, 8, 8);&quot;&gt;&lt;pre style=&quot;&quot;&gt;&lt;font face=&quot;Helvetica&quot;&gt;ChangeNumOfPlayersResponse(false)&lt;/font&gt;&lt;/pre&gt;&lt;/div&gt;" style="html=1;verticalAlign=bottom;endArrow=open;dashed=1;endSize=8;edgeStyle=elbowEdgeStyle;elbow=vertical;curved=0;rounded=0;labelBackgroundColor=none;" parent="1" source="Jj6_9JQDS-Vz_as1rNOG-5" target="Jj6_9JQDS-Vz_as1rNOG-4" edge="1">
          <mxGeometry x="-0.0165" y="10" relative="1" as="geometry">
            <mxPoint x="655" y="280" as="sourcePoint" />
            <mxPoint x="230" y="280" as="targetPoint" />
            <Array as="points">
              <mxPoint x="505" y="280" />
              <mxPoint x="555" y="300" />
              <mxPoint x="575" y="270" />
              <mxPoint x="340" y="250" />
            </Array>
            <mxPoint as="offset" />
          </mxGeometry>
        </mxCell>
        <mxCell id="Jj6_9JQDS-Vz_as1rNOG-39" value="&lt;div style=&quot;color: rgb(8, 8, 8);&quot;&gt;&lt;pre style=&quot;&quot;&gt;&lt;font face=&quot;Helvetica&quot;&gt;NotAdminMessage&lt;/font&gt;&lt;/pre&gt;&lt;/div&gt;" style="html=1;verticalAlign=bottom;endArrow=block;endSize=8;edgeStyle=elbowEdgeStyle;elbow=vertical;curved=0;rounded=0;labelBackgroundColor=none;endFill=1;" parent="1" source="Jj6_9JQDS-Vz_as1rNOG-5" target="Jj6_9JQDS-Vz_as1rNOG-4" edge="1">
          <mxGeometry x="-0.0165" y="10" relative="1" as="geometry">
            <mxPoint x="430" y="400" as="sourcePoint" />
            <mxPoint x="5" y="400" as="targetPoint" />
            <Array as="points">
              <mxPoint x="580" y="380" />
              <mxPoint x="285" y="400" />
              <mxPoint x="335" y="420" />
              <mxPoint x="355" y="390" />
              <mxPoint x="120" y="370" />
            </Array>
            <mxPoint as="offset" />
          </mxGeometry>
        </mxCell>
      </root>
    </mxGraphModel>
  </diagram>
</mxfile>
